<svg width="56" height="56" viewBox="0 0 56 56" fill="none" xmlns="http://www.w3.org/2000/svg">
<path d="M45 28.7382C45.0031 27.3585 44.5798 26.0116 43.7876 24.882C42.9956 23.7524 41.8735 22.8953 40.5753 22.4283C40.6935 21.8261 40.753 21.2139 40.7532 20.6003C40.7544 18.5692 40.1113 16.59 38.9167 14.9473C37.7221 13.3047 36.0375 12.0831 34.1048 11.4583C32.1723 10.8335 30.0912 10.8376 28.1611 11.4701C26.2309 12.1025 24.551 13.3307 23.3629 14.9781C22.4864 14.2989 21.4124 13.9238 20.3036 13.9097C19.1947 13.8956 18.1115 14.2432 17.218 14.9C16.3245 15.5567 15.6694 16.4867 15.3518 17.5492C15.0343 18.6117 15.0716 19.7487 15.4583 20.788C14.157 21.2623 13.0322 22.1238 12.2352 23.2564C11.4382 24.3891 11.0071 25.7387 11 27.1236C10.9964 28.5081 11.4221 29.8596 12.2183 30.992C13.0146 32.1245 14.1424 32.9824 15.4464 33.4474C15.331 34.0493 15.2721 34.6605 15.2705 35.2734C15.2686 37.3021 15.911 39.279 17.1051 40.9193C18.2993 42.5593 19.9834 43.7778 21.9147 44.3991C23.846 45.0202 25.9248 45.0121 27.8511 44.3756C29.7775 43.7393 31.452 42.5075 32.6331 40.858C33.5072 41.539 34.5792 41.9162 35.6871 41.9328C36.7949 41.9494 37.8779 41.6042 38.7717 40.9497C39.6657 40.295 40.3218 39.3668 40.6404 38.3058C40.9591 37.2446 40.9231 36.1087 40.5378 35.0698C41.8397 34.5963 42.9653 33.7351 43.7627 32.6024C44.5603 31.4696 44.9913 30.1196 44.998 28.7342" fill="white"/>
<path d="M24.3668 25.5803L31.8071 28.9773L39.3165 22.4006C39.4246 21.8579 39.4784 21.3058 39.4766 20.7525C39.4762 18.9611 38.9025 17.2168 37.8393 15.775C36.7763 14.3331 35.2798 13.2693 33.5684 12.7392C31.8573 12.2092 30.0214 12.2407 28.3294 12.8292C26.6374 13.4176 25.1782 14.5322 24.1652 16.0097L22.9143 22.4796L24.3668 25.5803Z" fill="#FEC514"/>
<path d="M16.6657 33.4592C16.556 34.0104 16.5011 34.571 16.5017 35.133C16.5018 36.9319 17.0784 38.6834 18.147 40.1304C19.2157 41.5775 20.72 42.6438 22.4392 43.1731C24.1585 43.7023 26.0021 43.6665 27.6995 43.0709C29.3969 42.4755 30.8588 41.3514 31.8704 39.864L33.1094 33.4078L31.4554 30.246L23.9874 26.843L16.6657 33.4592Z" fill="#00BFB3"/>
<path d="M16.6202 20.5845L21.7187 21.788L22.8352 15.9899C22.1418 15.4641 21.2966 15.177 20.4264 15.1717C19.5561 15.1664 18.7075 15.4432 18.0077 15.9605C17.3078 16.4779 16.7944 17.208 16.5443 18.0416C16.2942 18.8751 16.3208 19.7673 16.6202 20.5845Z" fill="#F04E98"/>
<path d="M16.1776 21.7979C15.059 22.1753 14.0857 22.8921 13.3933 23.8483C12.7009 24.8046 12.3237 25.9529 12.3142 27.1335C12.3134 28.2745 12.6599 29.3888 13.3077 30.3281C13.9554 31.2675 14.8737 31.9874 15.9405 32.3921L23.0942 25.9261L21.7801 23.1199L16.1776 21.7979Z" fill="#1BA9F5"/>
<path d="M33.1786 39.8639C33.871 40.387 34.7141 40.6724 35.5818 40.6769C36.4495 40.6815 37.2955 40.4054 37.9933 39.8896C38.6913 39.3738 39.2035 38.646 39.4539 37.815C39.7041 36.9842 39.6788 36.0946 39.3818 35.2792L34.2872 34.0935L33.1786 39.8639Z" fill="#93C90E"/>
<path d="M34.214 32.7519L39.8224 34.0621C40.9417 33.6856 41.9155 32.9693 42.6082 32.0126C43.3008 31.0561 43.6775 29.9073 43.6858 28.7264C43.6848 27.5878 43.3376 26.4765 42.6904 25.5397C42.043 24.603 41.1262 23.8853 40.0615 23.4817L32.726 29.9042L34.214 32.7519Z" fill="#0077CC"/>
</svg>
